# Blender 4.4.0
# www.blender.org
mtllib kernel.mtl
o Cone
v -1.155532 0.573758 -1.265949
v -0.817384 1.247320 -0.804691
v -0.001023 1.526318 -0.613631
v 0.815337 1.247320 -0.804691
v 1.153485 0.573757 -1.265949
v 0.815337 -0.099805 -1.727206
v -0.001024 -0.378803 -1.918266
v -0.817384 -0.099804 -1.727207
v -0.734023 0.916895 -1.767022
v -0.519333 1.344541 -1.474168
v -0.001023 1.521678 -1.352864
v 0.517286 1.344541 -1.474168
v 0.731977 0.916894 -1.767022
v 0.517286 0.489248 -2.059875
v -0.001023 0.312111 -2.181180
v -0.519333 0.489248 -2.059875
v 1.273116 0.562774 -1.155561
v 0.807088 1.232622 -0.816578
v 0.615033 1.509922 0.000128
v 0.809454 1.232234 0.816141
v 1.276463 0.562225 1.153453
v 1.742491 -0.107623 0.814471
v 1.934547 -0.384923 -0.002235
v 1.740125 -0.107235 -0.818249
v 1.772097 0.909724 -0.734693
v 1.476214 1.335013 -0.519472
v 1.354278 1.511071 -0.000944
v 1.477717 1.334767 0.517146
v 1.774222 0.909376 0.731306
v 2.070105 0.484088 0.516085
v 2.192040 0.308030 -0.002444
v 2.068602 0.484334 -0.520533
v 1.150519 0.578269 1.275136
v 0.813623 1.253093 0.814807
v -0.002218 1.532869 0.622667
v -0.819095 1.253709 0.811269
v -1.158492 0.579140 1.270133
v -0.821595 -0.095683 1.730462
v -0.005755 -0.375459 1.922601
v 0.811122 -0.096299 1.733999
v 0.728053 0.920330 1.776138
v 0.514157 1.348777 1.483874
v -0.003822 1.526408 1.361884
v -0.522459 1.349168 1.481628
v -0.737943 0.920883 1.772962
v -0.524047 0.492436 2.065226
v -0.006068 0.314806 2.187216
v 0.512569 0.492045 2.067472
v -1.253209 0.571981 1.146938
v -0.775748 1.235934 0.812293
v -0.573864 1.511569 -0.002604
v -0.765818 1.237423 -0.820397
v -1.239165 0.574087 -1.162035
v -1.716625 -0.089865 -0.827391
v -1.918508 -0.365501 -0.012494
v -1.726555 -0.091355 0.805300
v -1.754033 0.912194 0.741104
v -1.457451 1.353894 0.554678
v -1.319154 1.555398 0.046658
v -1.420156 1.398669 -0.485365
v -1.701290 0.975515 -0.729739
v -1.997873 0.533815 -0.543314
v -2.136169 0.332311 -0.035294
v -2.035167 0.489041 0.496730
v -1.914723 1.890139 0.000000
v -1.768973 1.890139 0.732733
v -0.732732 1.890139 1.768973
v 0.000000 1.890139 1.914722
v 0.732733 1.890139 1.768973
v 1.768973 1.890139 0.732732
v 1.914722 1.890139 -0.000000
v 1.768973 1.890139 -0.732733
v 0.732732 1.890139 -1.768973
v -0.000000 1.890139 -1.914723
v -0.732733 1.890139 -1.768973
v -1.768973 1.890139 -0.732732
v -1.914722 4.000794 -0.000000
v -1.768973 4.000794 0.732732
v -0.732733 4.000794 1.768973
v -0.000000 4.000794 1.914722
v 0.732732 4.000794 1.768973
v 1.768973 4.000794 0.732732
v 1.914722 4.000794 -0.000000
v 1.768973 4.000794 -0.732733
v 0.732733 4.000794 -1.768973
v 0.000000 4.000794 -1.914723
v -0.732732 4.000794 -1.768973
v -1.768973 4.000794 -0.732733
v -1.353913 1.890139 1.353913
v -1.353913 4.000794 1.353913
v -1.353914 1.890139 -1.353913
v -1.353913 4.000794 -1.353914
v 1.353913 1.890139 -1.353914
v 1.353913 4.000794 -1.353914
v 1.353913 1.890139 1.353913
v 1.353913 4.000794 1.353913
v -1.273852 2.551923 0.000000
v -1.103188 2.551923 0.636926
v -0.636926 2.551923 1.103189
v 0.000000 2.551923 1.273853
v 0.636926 2.551923 1.103189
v 1.103189 2.551923 0.636927
v 1.273852 2.551923 0.000000
v 1.103189 2.551923 -0.636926
v 0.636926 2.551923 -1.103189
v -0.000000 2.551923 -1.273852
v -0.636926 2.551923 -1.103188
v -1.103189 2.551923 -0.636926
v -0.001023 -0.103438 -0.291251
v 0.309623 -0.128216 0.000197
v -0.002114 -0.093873 0.290267
v -0.287547 -0.133082 -0.002361
v 0.000000 3.047956 0.000000
vn -0.4649 0.5369 -0.7040
vn -0.0610 -0.0402 -0.9973
vn -0.8166 -0.5771 0.0011
vn 0.6587 0.7524 0.0009
vn 0.4854 0.5143 0.7070
vn 0.8087 -0.5882 0.0044
vn 0.7050 0.5408 0.4588
vn -0.0000 0.7814 0.6241
vn -0.0000 -0.5680 0.8230
vn 0.3444 -0.6183 -0.7064
vn 0.5134 -0.8581 -0.0010
vn -0.9973 -0.0396 -0.0611
vn -0.7040 0.5429 -0.4578
vn 0.0016 -0.5640 -0.8257
vn 0.0622 -0.0538 0.9966
vn -0.3612 -0.6165 0.6997
vn -0.9974 -0.0403 0.0596
vn -0.5809 -0.1571 -0.7987
vn -0.7055 -0.6218 -0.3399
vn -0.7050 0.5408 0.4588
vn -0.7064 -0.6225 0.3369
vn -0.0000 -0.3557 -0.9346
vn -0.0000 -0.8628 -0.5055
vn 0.5809 -0.1571 -0.7987
vn 0.7055 -0.6218 -0.3399
vn -0.8215 0.3222 -0.4704
vn 0.9974 -0.0403 0.0596
vn 0.8215 0.3222 -0.4704
vn 0.6060 0.2950 0.7388
vn -0.0000 0.5525 0.8335
vn -0.6061 0.2950 0.7387
vn 0.0016 0.7839 -0.6209
vn -0.5362 -0.8441 -0.0063
vn 0.3465 -0.6186 0.7051
vn -0.0581 -0.0407 0.9975
vn 0.8784 -0.0269 -0.4772
vn 0.7064 0.5424 -0.4548
vn 0.9905 -0.1372 -0.0015
vn 0.8797 -0.0272 0.4747
vn -0.7390 0.2934 -0.6065
vn 0.4585 0.1091 -0.8820
vn 0.4606 0.1081 0.8810
vn -0.7385 0.2923 0.6076
vn -0.4629 0.5366 0.7056
vn -0.8352 0.5499 0.0009
vn -0.6312 0.7756 0.0011
vn 0.9976 -0.0404 -0.0568
vn 0.7044 -0.6230 0.3400
vn -0.3626 -0.6064 -0.7077
vn 0.0579 -0.0422 -0.9974
vn 0.5791 -0.1593 0.7995
vn -0.0022 -0.3580 0.9337
vn -0.0014 -0.8642 0.5031
vn -0.5827 -0.1589 0.7970
vn 0.6043 0.2909 -0.7418
vn 0.8206 0.3207 0.4730
vn -0.8224 0.3213 0.4695
vn -0.6027 0.2927 -0.7423
vn 0.0012 0.5490 -0.8358
vn 0.4809 0.5209 -0.7052
vn -0.4915 0.2912 0.8207
vn -0.8343 -0.1433 0.5324
vn -0.9559 -0.2894 -0.0489
vn -0.7980 -0.0789 -0.5975
vn 0.7293 0.2587 0.6335
vn -0.4436 0.3791 -0.8121
vn 0.7646 0.3312 -0.5529
vn 0.8412 0.5382 0.0529
vn -0.0000 -0.0000 1.0000
vn -0.4075 0.0414 0.9123
vn -0.0000 0.0900 0.9959
vn -0.4079 0.0382 -0.9122
vn -0.0000 -0.0000 -1.0000
vn -0.0000 0.0876 -0.9962
vn 0.9239 -0.0000 -0.3827
vn 0.9959 0.0907 -0.0001
vn 0.9121 0.0407 -0.4080
vn 0.3827 -0.0000 0.9239
vn 0.4079 0.0402 0.9121
vn -0.7071 -0.0000 -0.7071
vn -0.7068 -0.0120 -0.7073
vn -0.9239 -0.0000 0.3827
vn -0.9973 0.0738 -0.0023
vn -0.9133 0.0316 0.4060
vn 0.7071 -0.0000 -0.7071
vn 0.7072 0.0003 -0.7070
vn 0.7073 0.0013 0.7069
vn -1.0000 -0.0000 -0.0000
vn -0.9111 0.0137 -0.4119
vn -0.7071 -0.0000 0.7071
vn -0.7075 -0.0003 0.7067
vn 0.4080 0.0377 -0.9122
vn 1.0000 -0.0000 -0.0000
vn 0.9120 0.0406 0.4081
vn -0.9525 0.1174 0.2810
vn -0.9331 0.1150 -0.3407
vn -0.9896 0.1413 -0.0274
vn -0.3827 -0.0000 0.9239
vn -0.9239 -0.0000 -0.3827
vn 0.3827 -0.0000 -0.9239
vn -0.6957 -0.0045 0.7184
vn -0.7572 0.0068 0.6531
vn -0.2996 0.1475 0.9426
vn 0.2962 0.1460 0.9439
vn -0.0023 0.1705 0.9854
vn 0.7588 0.0012 0.6513
vn 0.7621 -0.0019 -0.6474
vn 0.3019 0.1419 -0.9427
vn -0.3018 0.1423 -0.9427
vn -0.0000 0.1665 -0.9860
vn -0.7611 -0.0003 -0.6487
vn -0.5770 -0.0454 -0.8155
vn -0.2276 -0.7033 0.6734
vn 0.2277 -0.7033 0.6734
vn 0.6817 -0.6965 0.2240
vn 0.6782 -0.6994 -0.2257
vn 0.2286 -0.7051 -0.6712
vn -0.2283 -0.7054 -0.6710
vn -0.6734 -0.7033 -0.2277
vn -0.6736 -0.7032 0.2277
vn 0.5918 -0.5501 0.5892
vn -0.1948 -0.4858 0.8521
vn 0.5962 -0.5531 -0.5819
vn 0.8504 -0.4812 0.2127
vn -0.5917 -0.5563 -0.5835
vn 0.1838 -0.4897 -0.8523
vn -0.5898 -0.5546 0.5870
vn -0.0004 -0.5606 -0.8281
vn -0.0000 -1.0000 -0.0000
vn -0.0001 -0.5568 0.8306
vn -0.8305 -0.5571 -0.0001
vn 0.8393 -0.5437 0.0050
vn 0.9239 -0.0000 0.3827
vn -0.3827 -0.0000 -0.9239
vn 0.7071 -0.0000 0.7071
vn 0.8651 -0.4619 -0.1954
vn 0.1944 -0.4859 0.8521
vn -0.1858 -0.4870 -0.8534
vt 0.262607 0.196417
vt 0.262608 0.138595
vt 0.340686 0.196418
vt 0.385876 0.239301
vt 0.385877 0.187733
vt 0.468702 0.239301
vt 0.386533 0.687731
vt 0.386533 0.742084
vt 0.473835 0.687731
vt 0.262608 0.078277
vt 0.262609 0.017959
vt 0.340688 0.078278
vt 0.259772 0.615977
vt 0.259771 0.680629
vt 0.347073 0.615978
vt 0.385877 0.126396
vt 0.385878 0.062411
vt 0.468703 0.126397
vt 0.255119 0.843136
vt 0.206245 0.910577
vt 0.255118 0.910578
vt 0.386533 0.796437
vt 0.473834 0.742085
vt 0.259772 0.548535
vt 0.347073 0.548535
vt 0.206244 0.978020
vt 0.255118 0.978020
vt 0.255122 0.470241
vt 0.206248 0.537683
vt 0.255122 0.537683
vt 0.255120 0.778483
vt 0.206245 0.843135
vt 0.255121 0.605125
vt 0.206247 0.605125
vt 0.206247 0.669777
vt 0.255120 0.669777
vt 0.206246 0.724130
vt 0.255120 0.724131
vt 0.206246 0.778483
vt 0.468703 0.187734
vt 0.259771 0.734982
vt 0.347072 0.680629
vt 0.385878 -0.001574
vt 0.468704 0.062412
vt 0.386532 0.861089
vt 0.386531 0.928531
vt 0.473833 0.861090
vt 0.262605 0.411781
vt 0.262606 0.351463
vt 0.340685 0.411782
vt 0.473834 0.796438
vt 0.259770 0.789335
vt 0.347072 0.734983
vt 0.262605 0.472099
vt 0.340684 0.472100
vt 0.206249 0.470240
vt 0.386531 0.995974
vt 0.473833 0.928532
vt 0.262607 0.293640
vt 0.340685 0.351464
vt 0.259770 0.853987
vt 0.259769 0.921429
vt 0.347071 0.853988
vt 0.385875 0.416190
vt 0.385875 0.352205
vt 0.468701 0.416191
vt 0.386535 0.488194
vt 0.386535 0.555636
vt 0.473836 0.488195
vt 0.347071 0.789336
vt 0.262607 0.245029
vt 0.340686 0.293641
vt 0.385874 0.480175
vt 0.468700 0.480176
vt 0.385876 0.290867
vt 0.468701 0.352206
vt 0.386534 0.623079
vt 0.473836 0.555637
vt 0.340686 0.245030
vt 0.259773 0.481092
vt 0.347074 0.481093
vt 0.468702 0.290868
vt 0.473835 0.623080
vt 0.340687 0.138596
vt 0.259768 0.988872
vt 0.347070 0.921430
vt 0.170654 0.289087
vt 0.003476 0.348262
vt 0.003476 0.289087
vt 0.003476 0.703309
vt 0.170654 0.762483
vt 0.003476 0.762483
vt 0.170655 0.940006
vt 0.003476 0.999181
vt 0.003476 0.940006
vt 0.170654 0.229913
vt 0.003476 0.229913
vt 0.170654 0.644134
vt 0.003476 0.644134
vt 0.170654 0.466611
vt 0.003476 0.525785
vt 0.003476 0.466611
vt 0.170655 0.880832
vt 0.003476 0.880832
vt 0.003476 0.170738
vt 0.170654 0.525785
vt 0.003476 0.584960
vt 0.170654 0.407436
vt 0.003476 0.407436
vt 0.003476 0.821657
vt 0.170654 0.052390
vt 0.003476 0.111564
vt 0.003476 0.052390
vt 0.712022 0.839622
vt 0.748000 0.795354
vt 0.774787 0.816031
vt 0.679070 0.789480
vt 0.712630 0.806823
vt 0.170654 0.348262
vt 0.170654 0.584960
vt 0.170654 0.821657
vt 0.765044 0.760877
vt 0.880268 0.620344
vt 0.928220 0.626011
vt 0.838674 0.694211
vt 0.904053 0.611151
vt 0.936288 0.571712
vt 0.902891 0.552046
vt 0.917427 0.581590
vt 0.879720 0.543797
vt 0.914993 0.514015
vt 0.777559 0.419011
vt 0.793256 0.355563
vt 0.839564 0.455787
vt 0.764663 0.379173
vt 0.735443 0.320776
vt 0.703500 0.376189
vt 0.734360 0.365921
vt 0.686741 0.413751
vt 0.674888 0.349302
vt 0.572162 0.528308
vt 0.540218 0.493753
vt 0.620294 0.443926
vt 0.547550 0.529797
vt 0.501687 0.551515
vt 0.540670 0.593018
vt 0.525815 0.558049
vt 0.565076 0.599714
vt 0.518685 0.625803
vt 0.668038 0.753224
vt 0.646914 0.811013
vt 0.598326 0.680022
vt 0.642782 0.517457
vt 0.598049 0.568628
vt 0.592384 0.543222
vt 0.635097 0.623409
vt 0.586283 0.590539
vt 0.670776 0.661423
vt 0.720817 0.709830
vt 0.684461 0.721616
vt 0.767832 0.666444
vt 0.754205 0.727599
vt 0.807130 0.632759
vt 0.828151 0.583167
vt 0.854503 0.611374
vt 0.810979 0.526965
vt 0.853873 0.553322
vt 0.773853 0.489346
vt 0.728325 0.471371
vt 0.757965 0.449555
vt 0.682492 0.484905
vt 0.703244 0.446830
vt 0.623631 0.571747
vt 0.719487 0.676512
vt 0.170654 0.111564
vt 0.170654 0.703309
vt 0.170655 0.999181
vt 0.170654 0.170738
s 1
usemtl Material.001
f 18/1/1 17/2/2 110/3/3
f 51/4/4 50/5/5 112/6/6
f 4/7/7 3/8/8 109/9/9
f 24/10/10 23/11/11 110/12/3
f 37/13/12 36/14/13 111/15/14
f 49/16/15 56/17/16 112/18/6
f 1/19/17 16/20/18 8/21/19
f 3/8/8 2/22/20 109/23/9
f 38/24/21 37/13/12 111/25/14
f 8/21/19 15/26/22 7/27/23
f 7/28/23 14/29/24 6/30/25
f 2/31/20 9/32/26 1/19/17
f 5/33/27 14/29/24 13/34/28
f 5/33/27 12/35/29 4/36/7
f 4/36/7 11/37/30 3/38/8
f 3/38/8 10/39/31 2/31/20
f 50/5/5 49/16/15 112/40/6
f 36/14/13 35/41/32 111/42/14
f 56/17/16 55/43/33 112/44/6
f 1/45/17 8/46/19 109/47/9
f 22/48/34 21/49/35 110/50/3
f 2/22/20 1/45/17 109/51/9
f 17/33/2 32/29/36 24/30/10
f 35/41/32 34/52/37 111/53/14
f 23/54/11 22/48/34 110/55/3
f 23/28/11 32/29/36 31/56/38
f 22/21/34 31/26/38 30/20/39
f 17/33/2 26/35/40 25/34/41
f 22/21/34 29/32/42 21/19/35
f 21/19/35 28/39/43 20/31/44
f 20/31/44 27/37/45 19/38/46
f 19/38/46 26/35/40 18/36/1
f 8/46/19 7/57/23 109/58/9
f 21/49/35 20/59/44 110/60/3
f 33/61/47 40/62/48 111/63/14
f 54/64/49 53/65/50 112/66/6
f 7/67/23 6/68/25 109/69/9
f 34/52/37 33/61/47 111/70/14
f 33/19/47 48/20/51 40/21/48
f 20/59/44 19/71/46 110/72/3
f 55/73/33 54/64/49 112/74/6
f 40/21/48 47/26/52 39/27/53
f 39/28/53 46/29/54 38/30/21
f 33/19/47 42/39/55 41/32/56
f 37/33/12 46/29/54 45/34/57
f 37/33/12 44/35/58 36/36/13
f 36/36/13 43/37/59 35/38/32
f 35/38/32 42/39/55 34/31/37
f 53/65/50 52/75/60 112/76/6
f 6/68/25 5/77/27 109/78/9
f 19/71/46 18/1/1 110/79/3
f 39/80/53 38/24/21 111/81/14
f 52/75/60 51/4/4 112/82/6
f 5/77/27 4/7/7 109/83/9
f 56/30/16 57/34/61 64/29/62
f 17/2/2 24/10/10 110/84/3
f 40/62/48 39/85/53 111/86/14
f 55/28/33 64/29/62 63/56/63
f 54/21/49 63/26/63 62/20/64
f 49/33/15 58/35/65 57/34/61
f 53/19/50 62/20/64 61/32/66
f 52/31/60 61/32/66 60/39/67
f 51/38/4 60/39/67 59/37/68
f 50/36/5 59/37/68 58/35/65
f 80/87/69 67/88/70 68/89/71
f 75/90/72 86/91/73 74/92/74
f 84/93/75 71/94/76 72/95/77
f 81/96/78 68/89/71 69/97/79
f 92/98/80 75/90/72 91/99/81
f 78/100/82 65/101/83 66/102/84
f 94/103/85 72/95/77 93/104/86
f 95/105/87 81/96/78 69/97/79
f 77/106/88 76/107/89 65/101/83
f 90/108/90 66/102/84 89/109/91
f 86/91/73 73/110/92 74/92/74
f 83/111/93 70/112/94 71/113/76
f 65/114/83 64/115/95 66/116/84
f 65/114/83 62/117/96 63/118/97
f 79/119/98 89/109/91 67/88/70
f 88/120/99 91/99/81 76/107/89
f 85/121/100 93/104/86 73/110/92
f 57/122/101 66/116/84 64/115/95
f 45/123/102 67/124/70 89/125/91
f 46/126/103 68/127/71 67/124/70
f 48/128/104 68/127/71 47/129/105
f 41/130/106 69/131/79 48/128/104
f 29/132/42 70/133/94 95/134/87
f 30/135/39 71/136/76 70/133/94
f 32/137/36 71/136/76 31/138/38
f 25/139/41 72/140/77 32/137/36
f 13/141/107 73/142/92 93/143/86
f 14/144/108 74/145/74 73/142/92
f 16/146/109 74/145/74 15/147/110
f 9/148/111 75/149/72 16/146/109
f 61/150/112 76/151/89 91/152/81
f 105/153/113 11/154/30 12/155/29
f 11/154/30 107/156/114 10/157/31
f 108/158/115 59/159/68 60/160/67
f 59/159/68 98/161/116 58/162/65
f 99/163/117 43/164/59 44/165/58
f 43/164/59 101/166/118 42/167/55
f 102/168/119 27/169/45 28/170/43
f 27/169/45 104/171/120 26/172/40
f 10/157/31 91/152/121 9/148/122
f 60/160/67 91/152/121 108/158/115
f 58/162/65 89/125/123 57/122/124
f 42/167/55 95/134/125 41/130/126
f 28/170/43 95/134/125 102/168/119
f 26/172/40 93/143/127 25/139/41
f 12/155/29 93/143/127 105/153/113
f 44/165/58 89/125/123 99/163/117
f 108/158/115 91/152/121 107/156/114
f 105/153/113 93/143/127 104/171/120
f 102/168/119 95/134/125 101/166/118
f 98/161/116 99/163/117 89/125/123
f 100/164/128 99/163/117 113/164/129
f 107/156/114 106/173/130 113/156/129
f 104/171/120 103/169/131 113/171/129
f 101/166/118 100/164/128 113/166/129
f 108/158/115 107/156/114 113/158/129
f 99/163/117 98/161/116 113/163/129
f 105/153/113 104/171/120 113/153/129
f 102/168/119 101/166/118 113/168/129
f 97/174/132 108/158/115 113/174/129
f 98/161/116 97/174/132 113/161/129
f 106/173/130 105/153/113 113/173/129
f 103/169/131 102/168/119 113/169/129
f 82/175/133 95/105/87 70/112/94
f 1/19/17 9/32/26 16/20/18
f 8/21/19 16/20/18 15/26/22
f 7/28/23 15/56/22 14/29/24
f 2/31/20 10/39/31 9/32/26
f 5/33/27 6/30/25 14/29/24
f 5/33/27 13/34/28 12/35/29
f 4/36/7 12/35/29 11/37/30
f 3/38/8 11/37/30 10/39/31
f 17/33/2 25/34/41 32/29/36
f 23/28/11 24/30/10 32/29/36
f 22/21/34 23/27/11 31/26/38
f 17/33/2 18/36/1 26/35/40
f 22/21/34 30/20/39 29/32/42
f 21/19/35 29/32/42 28/39/43
f 20/31/44 28/39/43 27/37/45
f 19/38/46 27/37/45 26/35/40
f 33/19/47 41/32/56 48/20/51
f 40/21/48 48/20/51 47/26/52
f 39/28/53 47/56/52 46/29/54
f 33/19/47 34/31/37 42/39/55
f 37/33/12 38/30/21 46/29/54
f 37/33/12 45/34/57 44/35/58
f 36/36/13 44/35/58 43/37/59
f 35/38/32 43/37/59 42/39/55
f 56/30/16 49/33/15 57/34/61
f 55/28/33 56/30/16 64/29/62
f 54/21/49 55/27/33 63/26/63
f 49/33/15 50/36/5 58/35/65
f 53/19/50 54/21/49 62/20/64
f 52/31/60 53/19/50 61/32/66
f 51/38/4 52/31/60 60/39/67
f 50/36/5 51/38/4 59/37/68
f 80/87/69 79/119/98 67/88/70
f 75/90/72 87/176/134 86/91/73
f 84/93/75 83/177/93 71/94/76
f 81/96/78 80/87/69 68/89/71
f 92/98/80 87/176/134 75/90/72
f 78/100/82 77/106/88 65/101/83
f 94/103/85 84/93/75 72/95/77
f 95/105/87 96/178/135 81/96/78
f 77/106/88 88/120/99 76/107/89
f 90/108/90 78/100/82 66/102/84
f 86/91/73 85/121/100 73/110/92
f 83/111/93 82/175/133 70/112/94
f 65/114/83 63/118/97 64/115/95
f 65/114/83 76/151/89 62/117/96
f 79/119/98 90/108/90 89/109/91
f 88/120/99 92/98/80 91/99/81
f 85/121/100 94/103/85 93/104/86
f 57/122/101 89/125/91 66/116/84
f 45/123/102 46/126/103 67/124/70
f 46/126/103 47/129/105 68/127/71
f 48/128/104 69/131/79 68/127/71
f 41/130/106 95/134/87 69/131/79
f 29/132/42 30/135/39 70/133/94
f 30/135/39 31/138/38 71/136/76
f 32/137/36 72/140/77 71/136/76
f 25/139/41 93/143/86 72/140/77
f 13/141/107 14/144/108 73/142/92
f 14/144/108 15/147/110 74/145/74
f 16/146/109 75/149/72 74/145/74
f 9/148/111 91/152/81 75/149/72
f 61/150/112 62/117/96 76/151/89
f 105/153/113 106/173/130 11/154/30
f 11/154/30 106/173/130 107/156/114
f 108/158/115 97/174/132 59/159/68
f 59/159/68 97/174/132 98/161/116
f 99/163/117 100/164/128 43/164/59
f 43/164/59 100/164/128 101/166/118
f 102/168/119 103/169/131 27/169/45
f 27/169/45 103/169/131 104/171/120
f 10/157/31 107/156/114 91/152/121
f 60/160/67 61/150/136 91/152/121
f 58/162/65 98/161/116 89/125/123
f 42/167/55 101/166/118 95/134/125
f 28/170/43 29/132/42 95/134/125
f 26/172/40 104/171/120 93/143/127
f 12/155/29 13/141/137 93/143/127
f 44/165/58 45/123/138 89/125/123
f 82/175/133 96/178/135 95/105/87
